<svg width="300" height="300" viewBox="0 0 300 300" fill="none" xmlns="http://www.w3.org/2000/svg">
<rect width="300" height="300" fill="#059378"/>
<path d="M150 44C164.591 44 178.212 46.7822 190.864 52.3465C203.516 57.818 214.644 65.4226 224.248 75.1601C233.945 84.8049 241.471 96.0263 246.827 108.824C252.276 121.622 255 135.347 255 150C255 164.56 252.276 178.285 246.827 191.176C241.471 203.974 233.945 215.241 224.248 224.979C214.644 234.624 203.516 242.228 190.864 247.793C178.212 253.264 164.591 256 150 256C135.501 256 121.88 253.264 109.136 247.793C96.4842 242.228 85.31 234.624 75.6135 224.979C66.0092 215.241 58.529 203.974 53.1728 191.176C47.7243 178.285 45 164.56 45 150C45 135.347 47.7243 121.622 53.1728 108.824C58.529 96.0263 66.0092 84.8049 75.6135 75.1601C85.31 65.4226 96.4842 57.818 109.136 52.3465C121.88 46.7822 135.501 44 150 44ZM101.517 202.304C92.8364 205.179 85.2639 208.796 78.7995 213.155C85.0792 220.203 92.3285 226.277 100.547 231.378C108.859 236.479 117.77 240.142 127.282 242.367C116.478 230.961 107.889 217.606 101.517 202.304ZM91.5435 155.008H55.5277C55.9894 164.467 57.7441 173.463 60.7916 181.995C63.7467 190.527 67.7177 198.409 72.7045 205.643C76.5831 203.232 80.6464 201.006 84.8945 198.966C89.2348 196.926 93.7599 195.071 98.4697 193.402C96.5303 187.559 94.9604 181.392 93.7599 174.9C92.5594 168.409 91.8206 161.778 91.5435 155.008ZM144.182 193.958C138.826 194.051 133.331 194.561 127.698 195.488C122.157 196.416 116.662 197.668 111.214 199.244C114.723 207.591 118.971 215.566 123.958 223.171C129.037 230.682 134.763 237.916 141.135 244.871C141.596 244.871 142.058 244.918 142.52 245.01C143.074 245.103 143.628 245.15 144.182 245.15V193.958ZM144.182 155.008H101.794C102.348 167.435 104.472 179.213 108.166 190.341C119.802 187.003 131.807 185.055 144.182 184.499V155.008ZM155.264 193.958V245.15C155.818 245.15 156.372 245.103 156.926 245.01C157.573 244.918 158.219 244.871 158.865 244.871C165.145 237.916 170.778 230.682 175.765 223.171C180.844 215.566 185.092 207.591 188.509 199.244C183.153 197.668 177.612 196.416 171.887 195.488C166.253 194.561 160.712 194.051 155.264 193.958ZM72.7045 94.6352C67.7177 101.683 63.7467 109.52 60.7916 118.144C57.7441 126.676 55.9894 135.626 55.5277 144.992H91.5435C91.8206 138.129 92.5594 131.499 93.7599 125.1C94.9604 118.701 96.5303 112.534 98.4697 106.598C93.7599 104.929 89.2348 103.121 84.8945 101.173C80.6464 99.133 76.5831 96.9536 72.7045 94.6352ZM198.206 202.304C195.158 209.909 191.418 217.096 186.985 223.866C182.645 230.636 177.889 236.803 172.718 242.367C182.322 240.142 191.187 236.479 199.314 231.378C207.533 226.277 214.736 220.203 220.924 213.155C217.784 210.929 214.228 208.935 210.257 207.173C206.379 205.318 202.361 203.696 198.206 202.304ZM108.166 109.659C106.412 115.223 104.98 120.927 103.872 126.769C102.764 132.612 102.071 138.686 101.794 144.992H144.182V115.78C138.087 115.501 131.992 114.852 125.897 113.832C119.894 112.719 113.984 111.328 108.166 109.659ZM197.929 155.008H155.264V184.499C161.359 184.591 167.5 185.194 173.687 186.307C179.875 187.327 185.923 188.672 191.834 190.341C193.681 184.87 195.112 179.166 196.128 173.231C197.236 167.296 197.836 161.221 197.929 155.008ZM127.282 57.6326C107.889 62.4549 91.7282 72.1925 78.7995 86.8451C82.124 89.0709 85.6794 91.1111 89.4657 92.9659C93.3443 94.7279 97.3615 96.3972 101.517 97.9738C104.749 90.2765 108.536 83.0429 112.876 76.273C117.216 69.5031 122.018 63.2896 127.282 57.6326ZM244.472 155.008H208.179C208.087 161.778 207.441 168.409 206.24 174.9C205.04 181.392 203.47 187.559 201.53 193.402C210.488 196.647 218.984 200.728 227.018 205.643C232.19 198.409 236.299 190.527 239.347 181.995C242.394 173.463 244.103 164.467 244.472 155.008ZM144.182 55.1286C142.704 55.1286 141.689 55.2213 141.135 55.4068C134.763 62.1767 129.037 69.4103 123.958 77.1076C118.971 84.7122 114.723 92.6877 111.214 101.034C116.662 102.425 122.157 103.584 127.698 104.512C133.331 105.439 138.826 106.042 144.182 106.32V55.1286ZM191.834 109.659C185.923 111.328 179.875 112.719 173.687 113.832C167.5 114.945 161.359 115.594 155.264 115.78V144.992H197.929C197.836 138.686 197.236 132.612 196.128 126.769C195.112 120.927 193.681 115.223 191.834 109.659ZM155.264 55.1286V106.32C160.712 106.042 166.253 105.486 171.887 104.651C177.612 103.724 183.153 102.518 188.509 101.034C185.092 92.6877 180.844 84.7122 175.765 77.1076C170.778 69.4103 165.145 62.1767 158.865 55.4068C158.219 55.2213 157.573 55.1286 156.926 55.1286C156.372 55.1286 155.818 55.1286 155.264 55.1286ZM227.018 94.6352C223.14 96.9536 219.077 99.133 214.828 101.173C210.58 103.121 206.148 104.929 201.53 106.598C203.47 112.534 205.04 118.701 206.24 125.1C207.441 131.499 208.087 138.129 208.179 144.992H244.472C244.103 135.626 242.394 126.676 239.347 118.144C236.299 109.52 232.19 101.683 227.018 94.6352ZM172.718 57.6326C177.889 63.2896 182.645 69.5031 186.985 76.273C191.418 83.0429 195.158 90.2765 198.206 97.9738C202.361 96.3972 206.379 94.7279 210.257 92.9659C214.228 91.1111 217.784 89.0709 220.924 86.8451C214.736 79.7043 207.533 73.6299 199.314 68.6221C191.187 63.6142 182.322 59.951 172.718 57.6326Z" fill="white"/>
</svg>
